<?xml version="1.0" encoding="UTF-8"?>
<svg id="Capa_1" data-name="Capa 1" xmlns="http://www.w3.org/2000/svg" xmlns:xlink="http://www.w3.org/1999/xlink" viewBox="0 0 1430 1360">
  <defs>
    <style>
      .cls-1, .cls-2 {
        fill: none;
      }

      .cls-2 {
        stroke: #000;
        stroke-miterlimit: 10;
        stroke-width: 4px;
      }

      .cls-3 {
        clip-path: url(#clippath);
      }
    </style>
    <clipPath id="clippath">
      <rect class="cls-1" x="-1012.62" y="-136.83" width="2102.86" height="728.38"/>
    </clipPath>
  </defs>
  <g class="cls-3">
    <polyline class="cls-2" points="712.03 599.55 712.03 539.42 722.11 530.87 722.11 514.91 757.06 514.91 757.06 489.27"/>
    <polyline class="cls-2" points="738.33 554.74 738.33 524.95 722.06 524.95 722.11 530.87 712.03 539.42 712.03 417.31 748.39 418.06 768.25 401.21 768.25 350.32"/>
    <path d="M763.23,347.01c0,2.77,2.24,5.01,5.01,5.01s5.01-2.24,5.01-5.01-2.24-5.01-5.01-5.01-5.01,2.24-5.01,5.01ZM770.4,347.01c0,1.19-.97,2.16-2.16,2.16s-2.16-.97-2.16-2.16.97-2.16,2.16-2.16,2.16.97,2.16,2.16Z"/>
    <polyline class="cls-2" points="712.03 599.55 712.03 310.59 735.4 278.9 735.4 245.8 727.69 232.27 727.69 131.16 715.44 121.02 715.44 55.24"/>
    <path d="M710.43,51.94c0,2.77,2.24,5.01,5.01,5.01s5.01-2.24,5.01-5.01-2.24-5.01-5.01-5.01-5.01,2.24-5.01,5.01ZM717.59,51.94c0,1.19-.97,2.16-2.16,2.16s-2.16-.97-2.16-2.16.97-2.16,2.16-2.16,2.16.97,2.16,2.16Z"/>
    <polyline class="cls-2" points="712.03 599.55 712.03 310.59 735.4 278.9 735.4 318.57"/>
    <path d="M740.42,321.88c0-2.77-2.24-5.01-5.01-5.01s-5.01,2.24-5.01,5.01,2.24,5.01,5.01,5.01,5.01-2.24,5.01-5.01ZM733.25,321.88c0-1.19.97-2.16,2.16-2.16s2.16.97,2.16,2.16-.97,2.16-2.16,2.16-2.16-.97-2.16-2.16Z"/>
    <polyline class="cls-2" points="712.03 599.55 712.03 310.59 735.4 278.9 735.4 258.24 763.19 257.32"/>
    <polyline class="cls-2" points="712.03 599.55 712.03 310.59 735.4 278.9 735.4 258.24 763.19 257.32 792.5 226.53"/>
    <path d="M791.15,220.68c-1.91,2-1.83,5.18.17,7.09,2,1.91,5.18,1.83,7.09-.17,1.91-2.01,1.83-5.18-.17-7.09-2-1.91-5.18-1.83-7.09.17ZM796.34,225.63c-.82.86-2.19.9-3.05.07-.86-.82-.9-2.19-.07-3.05s2.19-.9,3.05-.07c.86.82.9,2.19.07,3.05Z"/>
    <polyline class="cls-2" points="712.03 599.55 712.03 310.59 735.4 278.9 735.4 245.8 727.69 232.27 727.69 114.56"/>
    <path d="M722.68,111.25c0,2.77,2.24,5.01,5.01,5.01s5.01-2.24,5.01-5.01-2.24-5.01-5.01-5.01-5.01,2.24-5.01,5.01ZM729.85,111.25c0,1.19-.97,2.16-2.16,2.16s-2.16-.97-2.16-2.16.97-2.16,2.16-2.16,2.16.97,2.16,2.16Z"/>
    <polyline class="cls-2" points="712.03 599.55 712.03 310.59 735.4 278.9 735.4 245.8 727.69 232.27 727.69 145.15 705.31 125.72 705.31 18.77"/>
    <path d="M700.3,15.46c0,2.77,2.24,5.01,5.01,5.01s5.01-2.24,5.01-5.01-2.24-5.01-5.01-5.01-5.01,2.24-5.01,5.01ZM707.47,15.46c0,1.19-.97,2.16-2.16,2.16s-2.16-.97-2.16-2.16.97-2.16,2.16-2.16,2.16.97,2.16,2.16Z"/>
    <polyline class="cls-2" points="712.03 599.55 712.03 310.59 735.4 278.9 735.4 257.38 751.78 257.38 751.78 219.76 780.21 186.63 765.47 174.44 765.47 153.47"/>
    <path d="M760.45,150.16c0,2.77,2.24,5.01,5.01,5.01s5.01-2.24,5.01-5.01c0-2.77-2.24-5.01-5.01-5.01-2.77,0-5.01,2.24-5.01,5.01ZM767.62,150.16c0,1.19-.97,2.16-2.16,2.16s-2.16-.97-2.16-2.16c0-1.19.97-2.16,2.16-2.16,1.19,0,2.16.97,2.16,2.16Z"/>
    <polyline class="cls-2" points="712.03 599.55 712.03 310.59 735.4 278.9 735.4 257.38 751.78 257.38 751.78 219.76 780.21 186.63 750.73 161.67 750.73 133.69"/>
    <path d="M745.72,130.38c0,2.77,2.24,5.01,5.01,5.01s5.01-2.24,5.01-5.01-2.24-5.01-5.01-5.01-5.01,2.24-5.01,5.01ZM752.88,130.38c0,1.19-.97,2.16-2.16,2.16s-2.16-.97-2.16-2.16.97-2.16,2.16-2.16,2.16.97,2.16,2.16Z"/>
    <polyline class="cls-2" points="712.03 599.55 712.03 310.59 735.4 278.9 735.4 257.38 751.78 257.38 751.78 219.76 784.76 181.33 784.8 177.38"/>
    <polyline class="cls-2" points="712.03 599.55 712.03 310.59 735.4 278.9 735.4 257.38 751.78 257.38 751.78 219.76 784.76 181.33 785.24 139.15 759.48 118.14 759.48 49.19"/>
    <path d="M754.47,45.88c0,2.77,2.24,5.01,5.01,5.01s5.01-2.24,5.01-5.01-2.24-5.01-5.01-5.01-5.01,2.24-5.01,5.01ZM761.64,45.88c0,1.19-.97,2.16-2.16,2.16s-2.16-.97-2.16-2.16.97-2.16,2.16-2.16,2.16.97,2.16,2.16Z"/>
    <polyline class="cls-2" points="712.03 599.55 712.03 310.59 735.4 278.9 735.4 257.38 751.78 257.38 751.78 219.76 784.76 181.33 785.15 146.97"/>
    <polyline class="cls-2" points="712.03 599.55 712.03 310.59 735.4 278.9 735.4 257.38 751.78 257.38 751.78 219.76 784.76 181.33 784.76 128.5"/>
    <polyline class="cls-2" points="712.03 599.55 712.03 310.59 735.4 278.9 735.4 257.38 751.78 257.38 751.78 219.76 784.76 181.33 784.76 75.76"/>
    <path d="M779.74,72.46c0,2.77,2.24,5.01,5.01,5.01s5.01-2.24,5.01-5.01-2.24-5.01-5.01-5.01-5.01,2.24-5.01,5.01ZM786.91,72.46c0,1.19-.97,2.16-2.16,2.16s-2.16-.97-2.16-2.16.97-2.16,2.16-2.16,2.16.97,2.16,2.16Z"/>
    <polyline class="cls-2" points="712.03 599.55 712.03 447.5 748.39 447.5 781.06 417.31 781.06 388.14 799.33 388.14"/>
    <path d="M802.64,383.12c-2.77,0-5.01,2.24-5.01,5.01s2.24,5.01,5.01,5.01,5.01-2.24,5.01-5.01-2.24-5.01-5.01-5.01ZM802.64,390.29c-1.19,0-2.16-.97-2.16-2.16s.97-2.16,2.16-2.16,2.16.97,2.16,2.16-.97,2.16-2.16,2.16Z"/>
    <polyline class="cls-2" points="712.03 599.55 712.03 447.5 748.39 447.5 781.06 417.31 781.06 367.22"/>
    <path d="M776.04,363.91c0,2.77,2.24,5.01,5.01,5.01s5.01-2.24,5.01-5.01-2.24-5.01-5.01-5.01-5.01,2.24-5.01,5.01ZM783.21,363.91c0,1.19-.97,2.16-2.16,2.16s-2.16-.97-2.16-2.16.97-2.16,2.16-2.16,2.16.97,2.16,2.16Z"/>
    <polyline class="cls-2" points="712.03 599.55 712.03 405.63 739.35 405.63 753.8 394.57 753.8 357.85"/>
    <path d="M748.79,354.54c0,2.77,2.24,5.01,5.01,5.01s5.01-2.24,5.01-5.01-2.24-5.01-5.01-5.01-5.01,2.24-5.01,5.01ZM755.96,354.54c0,1.19-.97,2.16-2.16,2.16s-2.16-.97-2.16-2.16.97-2.16,2.16-2.16,2.16.97,2.16,2.16Z"/>
    <polyline class="cls-2" points="712.03 599.55 712.03 405.63 722.06 405.63 722.06 367.67 747.45 343.33 747.45 287.22"/>
    <path d="M742.44,283.91c0,2.77,2.24,5.01,5.01,5.01s5.01-2.24,5.01-5.01-2.24-5.01-5.01-5.01-5.01,2.24-5.01,5.01ZM749.61,283.91c0,1.19-.97,2.16-2.16,2.16s-2.16-.97-2.16-2.16.97-2.16,2.16-2.16,2.16.97,2.16,2.16Z"/>
    <polyline class="cls-2" points="712.03 599.55 712.03 539.42 722.11 530.87 722.06 524.95"/>
    <polyline class="cls-2" points="712.03 599.55 712.03 539.42 722.11 530.87 722.07 464.81"/>
    <path d="M717.05,461.5c0,2.77,2.25,5.01,5.02,5.01,2.77,0,5.01-2.25,5.01-5.02,0-2.77-2.25-5.01-5.02-5.01-2.77,0-5.01,2.25-5.01,5.02ZM724.22,461.5c0,1.19-.96,2.16-2.15,2.16-1.19,0-2.16-.96-2.16-2.15,0-1.19.96-2.16,2.15-2.16,1.19,0,2.16.96,2.16,2.15Z"/>
    <polyline class="cls-2" points="712.03 599.55 712.03 539.42 722.11 530.87 722.11 514.91 757.06 514.91 757.06 473.91 773.97 458.23 773.97 444.23"/>
    <path d="M768.96,440.92c0,2.77,2.24,5.01,5.01,5.01s5.01-2.24,5.01-5.01-2.24-5.01-5.01-5.01-5.01,2.24-5.01,5.01ZM776.13,440.92c0,1.19-.97,2.16-2.16,2.16s-2.16-.97-2.16-2.16.97-2.16,2.16-2.16,2.16.97,2.16,2.16Z"/>
    <polyline class="cls-2" points="712.03 599.55 712.03 539.42 722.11 530.87 722.11 514.91 736.02 514.92 736.17 480.57"/>
    <path d="M731.17,477.24c-.01,2.77,2.22,5.02,4.99,5.04,2.77.01,5.02-2.22,5.04-4.99.01-2.77-2.22-5.02-4.99-5.04-2.77-.01-5.02,2.22-5.04,4.99ZM738.34,477.28c0,1.19-.97,2.15-2.17,2.15-1.19,0-2.15-.97-2.15-2.17s.97-2.15,2.17-2.15c1.19,0,2.15.97,2.15,2.17Z"/>
    <polyline class="cls-2" points="738.33 599.55 738.33 524.95 722.06 524.95 722.06 514.91 757.06 514.91 757.06 489.04"/>
    <polyline class="cls-2" points="757.06 489.04 757.06 514.91 722.06 514.91 722.06 524.95 738.33 524.95 738.33 599.55"/>
    <polyline class="cls-2" points="702.63 599.55 702.63 394.78 695.52 386.19 655.61 386.19 642.84 374.14 617.82 374.14 617.82 361.29 593.1 339.52 593.1 302.48 529.18 241.59 529.18 210.03 511.1 198.06 511.1 141.09"/>
    <path d="M506.09,137.78c0,2.77,2.24,5.01,5.01,5.01s5.01-2.24,5.01-5.01-2.24-5.01-5.01-5.01-5.01,2.24-5.01,5.01ZM513.25,137.78c0,1.19-.97,2.16-2.16,2.16s-2.16-.97-2.16-2.16.97-2.16,2.16-2.16,2.16.97,2.16,2.16Z"/>
    <polyline class="cls-2" points="702.63 599.55 702.63 394.78 695.52 386.19 655.61 386.19 642.84 374.14 617.82 374.14 617.82 361.29 593.1 339.52 593.1 302.48 529.18 241.59 529.18 141.13"/>
    <path d="M524.17,137.82c0,2.77,2.24,5.01,5.01,5.01s5.01-2.24,5.01-5.01-2.24-5.01-5.01-5.01-5.01,2.24-5.01,5.01ZM531.34,137.82c0,1.19-.97,2.16-2.16,2.16s-2.16-.97-2.16-2.16.97-2.16,2.16-2.16,2.16.97,2.16,2.16Z"/>
    <polyline class="cls-2" points="702.63 599.55 702.63 394.78 695.52 386.19 655.61 386.19 642.84 374.14 617.82 374.14 617.82 301.65 548.12 233.84 548.12 69.58"/>
    <path d="M543.1,66.27c0,2.77,2.24,5.01,5.01,5.01s5.01-2.24,5.01-5.01-2.24-5.01-5.01-5.01-5.01,2.24-5.01,5.01ZM550.27,66.27c0,1.19-.97,2.16-2.16,2.16s-2.16-.97-2.16-2.16.97-2.16,2.16-2.16,2.16.97,2.16,2.16Z"/>
    <polyline class="cls-2" points="702.63 599.55 702.63 394.78 695.52 386.19 655.61 386.19 642.84 374.14 617.82 374.14 617.82 301.65 615.91 299.44 615.91 269.8 602.56 256.45 602.56 232.36"/>
    <path d="M597.54,229.06c0,2.77,2.24,5.01,5.01,5.01s5.01-2.24,5.01-5.01-2.24-5.01-5.01-5.01-5.01,2.24-5.01,5.01ZM604.71,229.06c0,1.19-.97,2.16-2.16,2.16s-2.16-.97-2.16-2.16.97-2.16,2.16-2.16,2.16.97,2.16,2.16Z"/>
    <polyline class="cls-2" points="702.63 599.55 702.63 394.78 695.52 386.19 655.61 386.19 642.84 374.14 617.82 374.14 617.82 301.65 590.24 274.83 590.24 212.09"/>
    <path d="M585.23,208.78c0,2.77,2.24,5.01,5.01,5.01s5.01-2.24,5.01-5.01-2.24-5.01-5.01-5.01-5.01,2.24-5.01,5.01ZM592.4,208.78c0,1.19-.97,2.16-2.16,2.16s-2.16-.97-2.16-2.16.97-2.16,2.16-2.16,2.16.97,2.16,2.16Z"/>
    <polyline class="cls-2" points="702.63 599.55 702.63 394.78 695.52 386.19 655.61 386.19 642.84 374.14 617.82 374.14 617.82 301.65 554.01 239.57 576.63 223.46 576.63 175.37"/>
    <path d="M571.62,172.07c0,2.77,2.24,5.01,5.01,5.01s5.01-2.24,5.01-5.01-2.24-5.01-5.01-5.01-5.01,2.24-5.01,5.01ZM578.79,172.07c0,1.19-.97,2.16-2.16,2.16s-2.16-.97-2.16-2.16.97-2.16,2.16-2.16,2.16.97,2.16,2.16Z"/>
    <polyline class="cls-2" points="702.63 599.55 702.63 394.78 695.52 386.19 655.61 386.19 642.84 374.14 617.82 374.14 617.82 301.65 548.12 233.84 548.12 225.29 563.78 214.26 563.78 148.64"/>
    <path d="M558.77,145.33c0,2.77,2.24,5.01,5.01,5.01s5.01-2.24,5.01-5.01-2.24-5.01-5.01-5.01-5.01,2.24-5.01,5.01ZM565.93,145.33c0,1.19-.97,2.16-2.16,2.16s-2.16-.97-2.16-2.16.97-2.16,2.16-2.16,2.16.97,2.16,2.16Z"/>
    <polyline class="cls-2" points="702.63 599.55 702.63 394.78 695.52 386.19 655.61 386.19 642.84 374.14 617.82 374.14 617.82 301.65 548.12 233.84 548.12 122.06 548.12 121.46 575.45 94.13 575.45 49.91"/>
    <path d="M570.43,46.61c0,2.77,2.24,5.01,5.01,5.01s5.01-2.24,5.01-5.01-2.24-5.01-5.01-5.01-5.01,2.24-5.01,5.01ZM577.6,46.61c0,1.19-.97,2.16-2.16,2.16s-2.16-.97-2.16-2.16.97-2.16,2.16-2.16,2.16.97,2.16,2.16Z"/>
    <polyline class="cls-2" points="702.63 599.55 702.63 394.78 695.52 386.19 655.61 386.19 642.84 374.14 617.82 374.14 617.82 301.65 548.12 233.84 548.12 90.99 563.69 76.19 563.69 22.97"/>
    <path d="M558.68,19.67c0,2.77,2.24,5.01,5.01,5.01s5.01-2.24,5.01-5.01-2.24-5.01-5.01-5.01-5.01,2.24-5.01,5.01ZM565.85,19.67c0,1.19-.97,2.16-2.16,2.16s-2.16-.97-2.16-2.16.97-2.16,2.16-2.16,2.16.97,2.16,2.16Z"/>
    <polyline class="cls-2" points="702.63 599.55 702.63 394.78 695.52 386.19 558.16 386.19 544.89 376.87 494.78 376.87 431.52 332.33 431.52 312.02 440.12 305.89 440.14 236.28 467.01 217.67 467.01 52.91"/>
    <path d="M462,49.6c0,2.77,2.24,5.01,5.01,5.01s5.01-2.24,5.01-5.01-2.24-5.01-5.01-5.01-5.01,2.24-5.01,5.01ZM469.17,49.6c0,1.19-.97,2.16-2.16,2.16s-2.16-.97-2.16-2.16.97-2.16,2.16-2.16,2.16.97,2.16,2.16Z"/>
    <polyline class="cls-2" points="702.63 599.55 702.63 394.78 695.52 386.19 581.78 386.19 563.65 373.08 563.65 358.48 550.86 345.7 550.86 290.92"/>
    <path d="M545.85,287.61c0,2.77,2.24,5.01,5.01,5.01s5.01-2.24,5.01-5.01-2.24-5.01-5.01-5.01-5.01,2.24-5.01,5.01ZM553.02,287.61c0,1.19-.97,2.16-2.16,2.16s-2.16-.97-2.16-2.16.97-2.16,2.16-2.16,2.16.97,2.16,2.16Z"/>
    <polyline class="cls-2" points="702.63 599.55 702.63 394.78 695.52 386.19 581.78 386.19 563.65 373.08 563.65 312.5"/>
    <path d="M558.64,309.19c0,2.77,2.24,5.01,5.01,5.01s5.01-2.24,5.01-5.01-2.24-5.01-5.01-5.01-5.01,2.24-5.01,5.01ZM565.81,309.19c0,1.19-.97,2.16-2.16,2.16s-2.16-.97-2.16-2.16.97-2.16,2.16-2.16,2.16.97,2.16,2.16Z"/>
    <polyline class="cls-2" points="702.63 599.55 702.63 394.78 695.52 386.19 558.16 386.19 544.89 376.87 532.12 376.87 521.78 366.57 521.81 354.19 532.18 343.53 532.18 314.72"/>
    <path d="M527.17,311.41c0,2.77,2.24,5.01,5.01,5.01s5.01-2.24,5.01-5.01-2.24-5.01-5.01-5.01-5.01,2.24-5.01,5.01ZM534.34,311.41c0,1.19-.97,2.16-2.16,2.16s-2.16-.97-2.16-2.16.97-2.16,2.16-2.16,2.16.97,2.16,2.16Z"/>
    <polyline class="cls-2" points="702.63 599.55 702.63 394.78 695.52 386.19 558.16 386.19 544.89 376.87 532.12 376.87 521.78 366.57 521.93 304.18"/>
    <path d="M516.93,300.86c0,2.77,2.23,5.02,5,5.03,2.77,0,5.02-2.23,5.03-5,0-2.77-2.23-5.02-5-5.03-2.77,0-5.02,2.23-5.03,5ZM524.1,300.88c0,1.19-.97,2.15-2.16,2.15-1.19,0-2.15-.97-2.15-2.16,0-1.19.97-2.15,2.16-2.15,1.19,0,2.15.97,2.15,2.16Z"/>
    <polyline class="cls-2" points="702.63 599.55 702.63 394.78 695.52 386.19 558.16 386.19 544.89 376.87 532.12 376.87 521.78 366.57 521.78 361.59 494.21 342.64 507.14 327.82 507.14 302.46"/>
    <path d="M502.13,299.15c0,2.77,2.24,5.01,5.01,5.01s5.01-2.24,5.01-5.01-2.24-5.01-5.01-5.01-5.01,2.24-5.01,5.01ZM509.29,299.15c0,1.19-.97,2.16-2.16,2.16s-2.16-.97-2.16-2.16.97-2.16,2.16-2.16,2.16.97,2.16,2.16Z"/>
    <polyline class="cls-2" points="702.63 599.55 702.63 394.78 695.52 386.19 558.16 386.19 544.89 376.87 532.12 376.87 521.78 366.57 521.78 361.59 493.17 341.99 493.06 310.69"/>
    <path d="M488.03,307.4c.01,2.77,2.26,5,5.03,4.99,2.77-.01,5-2.26,4.99-5.03-.01-2.77-2.26-5-5.03-4.99-2.77.01-5,2.26-4.99,5.03ZM495.2,307.38c0,1.19-.96,2.16-2.15,2.16-1.19,0-2.16-.96-2.16-2.15,0-1.19.96-2.16,2.15-2.16,1.19,0,2.16.96,2.16,2.15Z"/>
    <polyline class="cls-2" points="702.63 599.55 702.63 394.78 695.52 386.19 558.16 386.19 544.89 376.87 513.87 376.87 467.85 342.14 467.85 306.17"/>
    <path d="M462.84,302.86c0,2.77,2.24,5.01,5.01,5.01s5.01-2.24,5.01-5.01c0-2.77-2.24-5.01-5.01-5.01s-5.01,2.24-5.01,5.01ZM470.01,302.86c0,1.19-.97,2.16-2.16,2.16s-2.16-.97-2.16-2.16.97-2.16,2.16-2.16c1.19,0,2.16.97,2.16,2.16Z"/>
    <polyline class="cls-2" points="702.63 599.55 702.63 394.78 695.52 386.19 558.16 386.19 544.89 376.87 494.78 376.87 431.52 332.33 431.05 139.7"/>
    <path d="M426.03,136.41c0,2.77,2.26,5.01,5.03,5,2.77,0,5.01-2.26,5-5.03,0-2.77-2.26-5.01-5.03-5-2.77,0-5.01,2.26-5,5.03ZM433.2,136.39c0,1.19-.96,2.16-2.15,2.16-1.19,0-2.16-.96-2.16-2.15,0-1.19.96-2.16,2.15-2.16,1.19,0,2.16.96,2.16,2.15Z"/>
    <polyline class="cls-2" points="702.63 599.55 702.63 394.78 695.52 386.19 558.16 386.19 544.89 376.87 494.78 376.87 431.52 332.33 431.52 312.02 440.12 305.89 440.14 236.28 467.01 217.67 467.01 148.04 456.2 119.85 456.2 78.46"/>
    <path d="M451.19,75.16c0,2.77,2.24,5.01,5.01,5.01s5.01-2.24,5.01-5.01-2.24-5.01-5.01-5.01-5.01,2.24-5.01,5.01ZM458.36,75.16c0,1.19-.97,2.16-2.16,2.16s-2.16-.97-2.16-2.16.97-2.16,2.16-2.16,2.16.97,2.16,2.16Z"/>
    <polyline class="cls-2" points="702.63 599.55 702.63 394.53 684.8 372.7 668.72 372.7 668.72 315.59 644.03 291.42 644.03 236.6 618.53 211.1 618.53 191.84 605.79 166.18 605.79 111.22"/>
    <path d="M600.78,107.92c0,2.77,2.24,5.01,5.01,5.01s5.01-2.24,5.01-5.01-2.24-5.01-5.01-5.01-5.01,2.24-5.01,5.01ZM607.94,107.92c0,1.19-.97,2.16-2.16,2.16s-2.16-.97-2.16-2.16.97-2.16,2.16-2.16,2.16.97,2.16,2.16Z"/>
    <polyline class="cls-2" points="702.63 599.55 702.63 394.53 684.8 372.7 668.72 372.7 668.72 315.59 644.03 291.42 644.03 236.6 618.53 211.1 618.53 199.33 629.86 187.89 629.86 63.31"/>
    <path d="M624.85,60.01c0,2.77,2.24,5.01,5.01,5.01s5.01-2.24,5.01-5.01-2.24-5.01-5.01-5.01-5.01,2.24-5.01,5.01ZM632.02,60.01c0,1.19-.97,2.16-2.16,2.16s-2.16-.97-2.16-2.16.97-2.16,2.16-2.16,2.16.97,2.16,2.16Z"/>
    <polyline class="cls-2" points="702.63 599.55 702.63 394.53 684.8 372.7 668.72 372.7 668.72 315.59 644.03 291.42 644.03 236.6 618.53 211.1 618.53 98.13"/>
    <path d="M613.52,94.83c0,2.77,2.24,5.01,5.01,5.01s5.01-2.24,5.01-5.01-2.24-5.01-5.01-5.01-5.01,2.24-5.01,5.01ZM620.68,94.83c0,1.19-.97,2.16-2.16,2.16s-2.16-.97-2.16-2.16.97-2.16,2.16-2.16,2.16.97,2.16,2.16Z"/>
    <polyline class="cls-2" points="702.63 599.55 702.63 394.53 684.8 372.7 668.72 372.7 668.72 315.59 654.27 301.14 654.27 261.5 664.94 250.83 664.94 212.09"/>
    <path d="M659.92,208.78c0,2.77,2.24,5.01,5.01,5.01s5.01-2.24,5.01-5.01-2.24-5.01-5.01-5.01-5.01,2.24-5.01,5.01ZM667.09,208.78c0,1.19-.97,2.16-2.16,2.16s-2.16-.97-2.16-2.16.97-2.16,2.16-2.16,2.16.97,2.16,2.16Z"/>
    <polyline class="cls-2" points="702.63 599.55 702.63 394.53 695.52 386.19 682.11 386.19 674.65 378.73 659.3 378.73 645.74 365.17 645.74 317.73"/>
    <path d="M640.73,314.42c0,2.77,2.24,5.01,5.01,5.01s5.01-2.24,5.01-5.01-2.24-5.01-5.01-5.01-5.01,2.24-5.01,5.01ZM647.9,314.42c0,1.19-.97,2.16-2.16,2.16s-2.16-.97-2.16-2.16.97-2.16,2.16-2.16,2.16.97,2.16,2.16Z"/>
    <polyline class="cls-2" points="702.63 599.55 702.63 394.53 684.8 372.7 668.72 372.7 668.72 364.53 660.97 356.78 660.97 326.02"/>
    <path d="M655.96,322.71c0,2.77,2.24,5.01,5.01,5.01s5.01-2.24,5.01-5.01-2.24-5.01-5.01-5.01-5.01,2.24-5.01,5.01ZM663.13,322.71c0,1.19-.97,2.16-2.16,2.16s-2.16-.97-2.16-2.16.97-2.16,2.16-2.16,2.16.97,2.16,2.16Z"/>
    <polyline class="cls-2" points="702.63 599.55 702.63 394.53 684.8 372.7 668.72 372.7 668.72 315.59 661.59 308.46 661.59 285.55 676.49 270.65 676.49 248.17"/>
    <path d="M671.48,244.86c0,2.77,2.24,5.01,5.01,5.01s5.01-2.24,5.01-5.01-2.24-5.01-5.01-5.01-5.01,2.24-5.01,5.01ZM678.65,244.86c0,1.19-.97,2.16-2.16,2.16s-2.16-.97-2.16-2.16.97-2.16,2.16-2.16,2.16.97,2.16,2.16Z"/>
    <polyline class="cls-2" points="702.63 599.55 702.63 280.37 687.95 253.38 687.95 209.46 678.59 192.19 678.59 167.05 653.82 142.06 653.82 45.41"/>
    <path d="M648.81,42.1c0,2.77,2.24,5.01,5.01,5.01s5.01-2.24,5.01-5.01-2.24-5.01-5.01-5.01-5.01,2.24-5.01,5.01ZM655.98,42.1c0,1.19-.97,2.16-2.16,2.16s-2.16-.97-2.16-2.16.97-2.16,2.16-2.16,2.16.97,2.16,2.16Z"/>
    <polyline class="cls-2" points="702.63 599.55 702.63 280.37 687.95 253.38 687.95 209.46 678.59 192.19 678.59 156.06 664.09 141.89 664.09 108.63"/>
    <path d="M659.08,105.33c0,2.77,2.24,5.01,5.01,5.01s5.01-2.24,5.01-5.01-2.24-5.01-5.01-5.01-5.01,2.24-5.01,5.01ZM666.25,105.33c0,1.19-.97,2.16-2.16,2.16s-2.16-.97-2.16-2.16.97-2.16,2.16-2.16,2.16.97,2.16,2.16Z"/>
    <polyline class="cls-2" points="702.63 599.55 702.63 280.37 687.95 253.38 687.95 209.46 677.47 192.19 677.47 52.91"/>
    <path d="M673.57,49.6c0,2.77,2.24,5.01,5.01,5.01s5.01-2.24,5.01-5.01-2.24-5.01-5.01-5.01-5.01,2.24-5.01,5.01ZM680.74,49.6c0,1.19-.97,2.16-2.16,2.16s-2.16-.97-2.16-2.16.97-2.16,2.16-2.16,2.16.97,2.16,2.16Z"/>
    <polyline class="cls-2" points="702.63 599.55 702.63 280.37 687.95 253.38 687.95 168.24"/>
    <path d="M682.94,164.93c0,2.77,2.24,5.01,5.01,5.01s5.01-2.24,5.01-5.01-2.24-5.01-5.01-5.01-5.01,2.24-5.01,5.01ZM690.11,164.93c0,1.19-.97,2.16-2.16,2.16s-2.16-.97-2.16-2.16.97-2.16,2.16-2.16,2.16.97,2.16,2.16Z"/>
    <polyline class="cls-2" points="702.63 599.55 702.63 306.23 712.03 291.42 712.03 239.81"/>
    <path d="M707.62,236.51c0,2.77,2.24,5.01,5.01,5.01s5.01-2.24,5.01-5.01-2.24-5.01-5.01-5.01-5.01,2.24-5.01,5.01ZM714.79,236.51c0,1.19-.97,2.16-2.16,2.16s-2.16-.97-2.16-2.16.97-2.16,2.16-2.16,2.16.97,2.16,2.16Z"/>
    <polyline class="cls-2" points="702.63 599.55 702.63 189.02"/>
    <path d="M697.62,185.71c0,2.77,2.24,5.01,5.01,5.01s5.01-2.24,5.01-5.01-2.24-5.01-5.01-5.01-5.01,2.24-5.01,5.01ZM704.79,185.71c0,1.19-.97,2.16-2.16,2.16s-2.16-.97-2.16-2.16.97-2.16,2.16-2.16,2.16.97,2.16,2.16Z"/>
    <polyline class="cls-2" points="409.61 336.14 409.85 419.59 424.05 431.5 424.05 444.44 461.91 477.36 461.91 492.36 524.4 492.46 531.03 486.72 546.54 474.95 576.29 475.08 584.84 481.72 596.54 490.53 606.99 498.33 636.35 498.33 657.16 510.84 677.47 531.14 677.47 599.55"/>
    <path d="M414.62,332.82c0,2.77-2.23,5.02-5,5.03-2.77,0-5.02-2.23-5.03-5,0-2.77,2.23-5.02,5-5.03,2.77,0,5.02,2.23,5.03,5ZM407.45,332.84c0,1.19.97,2.15,2.16,2.15,1.19,0,2.15-.97,2.15-2.16,0-1.19-.97-2.15-2.16-2.15-1.19,0-2.15.97-2.15,2.16Z"/>
    <polyline class="cls-2" points="677.47 599.55 677.47 531.14 657.82 511.5 636.97 499.34 636.97 399.44"/>
    <path d="M631.96,396.13c0,2.77,2.24,5.01,5.01,5.01s5.01-2.24,5.01-5.01-2.24-5.01-5.01-5.01-5.01,2.24-5.01,5.01ZM639.13,396.13c0,1.19-.97,2.16-2.16,2.16s-2.16-.97-2.16-2.16.97-2.16,2.16-2.16,2.16.97,2.16,2.16Z"/>
    <polyline class="cls-2" points="677.47 599.55 677.47 531.14 657.82 511.5 635.24 498.33 606.33 498.33 576.68 475.38 576.29 475.08 576.29 457.84 590.08 457.84 598.89 444.82 598.89 415.06"/>
    <path d="M593.88,411.75c0,2.77,2.24,5.01,5.01,5.01s5.01-2.24,5.01-5.01-2.24-5.01-5.01-5.01-5.01,2.24-5.01,5.01ZM601.05,411.75c0,1.19-.97,2.16-2.16,2.16s-2.16-.97-2.16-2.16.97-2.16,2.16-2.16,2.16.97,2.16,2.16Z"/>
    <polyline class="cls-2" points="677.47 599.55 677.47 531.14 657.82 511.5 635.24 498.33 606.33 498.33 576.68 475.38 576.29 475.08 561.57 475.08 561.57 444.38"/>
    <path d="M556.56,441.07c0,2.77,2.24,5.01,5.01,5.01s5.01-2.24,5.01-5.01-2.24-5.01-5.01-5.01-5.01,2.24-5.01,5.01ZM563.73,441.07c0,1.19-.97,2.16-2.16,2.16s-2.16-.97-2.16-2.16.97-2.16,2.16-2.16,2.16.97,2.16,2.16Z"/>
    <polyline class="cls-2" points="677.47 599.55 677.47 531.14 657.82 511.5 635.24 498.33 606.33 498.33 576.29 475.08 576.29 420.6"/>
    <path d="M571.28,417.29c0,2.77,2.24,5.01,5.01,5.01s5.01-2.24,5.01-5.01-2.24-5.01-5.01-5.01-5.01,2.24-5.01,5.01ZM578.45,417.29c0,1.19-.97,2.16-2.16,2.16s-2.16-.97-2.16-2.16.97-2.16,2.16-2.16,2.16.97,2.16,2.16Z"/>
    <polyline class="cls-2" points="677.47 599.55 677.47 531.14 657.82 511.5 636.97 499.34 636.97 486.06 614.33 479.93 614.33 455.29 637.25 429.63 637.25 399.44"/>
    <path d="M632.24,396.13c0,2.77,2.24,5.01,5.01,5.01s5.01-2.24,5.01-5.01-2.24-5.01-5.01-5.01-5.01,2.24-5.01,5.01ZM639.41,396.13c0,1.19-.97,2.16-2.16,2.16s-2.16-.97-2.16-2.16.97-2.16,2.16-2.16,2.16.97,2.16,2.16Z"/>
    <polyline class="cls-2" points="677.47 599.55 677.47 531.14 657.82 511.5 636.97 499.34 636.97 486.06 614.33 479.93 614.33 466.84 637.25 441.55 637.25 399.44"/>
    <polyline class="cls-2" points="677.47 599.55 677.47 531.14 657.82 511.5 636.97 499.34 636.97 486.06 614.33 479.93 614.33 417.81"/>
    <path d="M609.32,414.51c0,2.77,2.24,5.01,5.01,5.01s5.01-2.24,5.01-5.01-2.24-5.01-5.01-5.01-5.01,2.24-5.01,5.01ZM616.49,414.51c0,1.19-.97,2.16-2.16,2.16s-2.16-.97-2.16-2.16.97-2.16,2.16-2.16,2.16.97,2.16,2.16Z"/>
    <polyline class="cls-2" points="677.47 599.55 677.47 531.14 657.82 511.5 657.82 495.84 676.37 478.45 675.98 413.8"/>
    <path d="M670.95,410.52c.02,2.77,2.28,5,5.04,4.98,2.77-.02,5-2.28,4.98-5.04-.02-2.77-2.28-5-5.04-4.98-2.77.02-5,2.28-4.98,5.04ZM678.12,410.48c0,1.19-.95,2.16-2.14,2.17-1.19,0-2.16-.95-2.17-2.14,0-1.19.95-2.16,2.14-2.17,1.19,0,2.16.95,2.17,2.14Z"/>
    <polyline class="cls-2" points="677.47 599.55 677.47 509.01"/>
    <path d="M672.46,505.71c0,2.77,2.24,5.01,5.01,5.01s5.01-2.24,5.01-5.01-2.24-5.01-5.01-5.01-5.01,2.24-5.01,5.01ZM679.63,505.71c0,1.19-.97,2.16-2.16,2.16s-2.16-.97-2.16-2.16.97-2.16,2.16-2.16,2.16.97,2.16,2.16Z"/>
    <polyline class="cls-2" points="677.47 599.55 677.47 551.16 694.08 517.97 694.08 489.55 688.98 481.04 688.98 428.15"/>
    <path d="M683.96,424.85c0,2.77,2.24,5.01,5.01,5.01s5.01-2.24,5.01-5.01-2.24-5.01-5.01-5.01-5.01,2.24-5.01,5.01ZM691.13,424.85c0,1.19-.97,2.16-2.16,2.16s-2.16-.97-2.16-2.16.97-2.16,2.16-2.16,2.16.97,2.16,2.16Z"/>
    <polyline class="cls-2" points="702.63 599.55 702.63 394.78 695.52 386.19 654.16 386.19 642.84 374.14 617.82 374.14 617.82 359.93 593.1 338.48 593.1 302.48 554.67 265.87 538.27 282.57 494.78 282.57 483.46 271.08 440.13 271.08 440.14 175.37"/>
    <path d="M435.13,172.07c0,2.77,2.24,5.01,5.01,5.01,2.77,0,5.01-2.24,5.01-5.01,0-2.77-2.24-5.01-5.01-5.01-2.77,0-5.01,2.24-5.01,5.01ZM442.3,172.07c0,1.19-.97,2.16-2.16,2.16-1.19,0-2.16-.97-2.16-2.16s.97-2.16,2.16-2.16c1.19,0,2.16.97,2.16,2.16Z"/>
    <polyline class="cls-2" points="702.63 599.55 702.63 394.78 695.52 386.19 654.16 386.19 642.84 374.14 617.82 374.14 617.82 359.93 593.1 338.48 593.1 302.48 554.67 265.87 538.27 282.57 494.78 282.57 483.46 271.08 440.13 271.08 440.14 236.28 457.52 224.25 457.52 203.07"/>
    <path d="M452.51,199.77c0,2.77,2.24,5.01,5.01,5.01s5.01-2.24,5.01-5.01-2.24-5.01-5.01-5.01-5.01,2.24-5.01,5.01ZM459.68,199.77c0,1.19-.97,2.16-2.16,2.16s-2.16-.97-2.16-2.16.97-2.16,2.16-2.16,2.16.97,2.16,2.16Z"/>
    <polyline class="cls-2" points="702.63 599.55 702.63 394.78 695.52 386.19 654.16 386.19 642.84 374.14 617.82 374.14 617.82 359.93 593.1 338.48 593.1 302.48 554.67 265.87 538.27 282.57 505.33 282.61 505.33 216.19 498.92 211.99 498.92 120.86"/>
    <path d="M493.9,117.55c0,2.77,2.24,5.01,5.01,5.01s5.01-2.24,5.01-5.01-2.24-5.01-5.01-5.01-5.01,2.24-5.01,5.01ZM501.07,117.55c0,1.19-.97,2.16-2.16,2.16s-2.16-.97-2.16-2.16.97-2.16,2.16-2.16,2.16.97,2.16,2.16Z"/>
    <polyline class="cls-2" points="702.63 599.55 702.63 394.78 695.52 386.19 654.16 386.19 642.84 374.14 617.82 374.14 617.82 359.93 593.1 338.48 593.1 302.48 554.67 265.87 538.27 282.57 515.39 282.6 515.39 239.85 505.33 233.04 505.33 216.19 498.92 211.99 499.12 170.74 511.1 162.91 511.1 141.09"/>
    <polyline class="cls-2" points="702.63 599.55 702.63 394.78 695.52 386.19 654.16 386.19 642.84 374.14 617.82 374.14 617.82 359.93 593.1 338.48 593.1 302.48 554.67 265.87 538.27 282.57 515.39 282.6 515.39 223.37"/>
    <path d="M510.38,220.06c0,2.77,2.24,5.01,5.01,5.01s5.01-2.24,5.01-5.01-2.24-5.01-5.01-5.01-5.01,2.24-5.01,5.01ZM517.55,220.06c0,1.19-.97,2.16-2.16,2.16s-2.16-.97-2.16-2.16.97-2.16,2.16-2.16,2.16.97,2.16,2.16Z"/>
    <polyline class="cls-2" points="702.63 599.55 702.63 394.78 695.52 386.19 654.16 386.19 642.84 374.14 617.82 374.14 617.82 359.93 593.1 338.48 593.1 302.48 554.67 265.87 538.27 282.57 494.78 282.57 483.46 271.08 440.13 271.08 440.13 247.84 466.14 230"/>
    <path d="M466.03,223.99c-2.28,1.57-2.86,4.69-1.3,6.97,1.57,2.28,4.69,2.86,6.97,1.3,2.28-1.57,2.86-4.69,1.3-6.97-1.57-2.28-4.69-2.86-6.97-1.3ZM470.09,229.91c-.98.67-2.32.42-3-.56-.67-.98-.42-2.32.56-3,.98-.67,2.32-.42,3,.56.67.98.42,2.32-.56,3Z"/>
    <polyline class="cls-2" points="677.47 599.55 677.47 531.14 657.16 510.84 636.35 498.33 606.99 498.33 596.54 490.53 584.84 481.72 576.29 475.08 546.54 474.95 531.03 486.72 524.4 492.46 470.76 492.37 470.76 472.87 434.56 442.32 434.56 414.19 451.37 400.14 451.37 382.8"/>
    <path d="M446.36,379.49c0,2.77,2.24,5.01,5.01,5.01s5.01-2.24,5.01-5.01-2.24-5.01-5.01-5.01-5.01,2.24-5.01,5.01ZM453.53,379.49c0,1.19-.97,2.16-2.16,2.16s-2.16-.97-2.16-2.16.97-2.16,2.16-2.16,2.16.97,2.16,2.16Z"/>
    <polyline class="cls-2" points="677.47 599.55 677.47 531.14 657.16 510.84 636.35 498.33 606.99 498.33 596.54 490.53 584.84 481.72 576.29 475.08 546.54 474.95 531.03 486.72 524.4 492.46 470.76 492.37 470.76 472.87 434.56 442.32 434.56 375.77"/>
    <path d="M429.55,372.47c0,2.77,2.24,5.01,5.01,5.01s5.01-2.24,5.01-5.01-2.24-5.01-5.01-5.01-5.01,2.24-5.01,5.01ZM436.72,372.47c0,1.19-.97,2.16-2.16,2.16s-2.16-.97-2.16-2.16.97-2.16,2.16-2.16,2.16.97,2.16,2.16Z"/>
    <polyline class="cls-2" points="677.47 599.55 677.47 531.14 657.16 510.84 636.35 498.33 606.99 498.33 596.54 490.53 584.84 481.72 576.29 475.08 546.54 474.95 531.03 486.72 524.4 492.46 461.91 492.36 461.91 477.36 424.05 444.44 424.05 355.19"/>
    <path d="M419.04,351.88c0,2.77,2.24,5.01,5.01,5.01s5.01-2.24,5.01-5.01-2.24-5.01-5.01-5.01-5.01,2.24-5.01,5.01ZM426.21,351.88c0,1.19-.97,2.16-2.16,2.16s-2.16-.97-2.16-2.16.97-2.16,2.16-2.16,2.16.97,2.16,2.16Z"/>
    <polyline class="cls-2" points="677.47 599.55 677.47 531.14 657.16 510.84 636.35 498.33 606.99 498.33 596.54 490.53 584.84 481.72 576.29 475.08 546.54 474.95 531.03 486.72 524.4 492.46 461.91 492.36 461.91 477.36 424.05 444.44 424.05 431.5 409.85 419.59 409.61 336.14"/>
    <path d="M404.59,332.85c0,2.77,2.26,5.01,5.03,5,2.77,0,5.01-2.26,5-5.03,0-2.77-2.26-5.01-5.03-5-2.77,0-5.01,2.26-5,5.03ZM411.76,332.83c0,1.19-.96,2.16-2.15,2.16-1.19,0-2.16-.96-2.16-2.15,0-1.19.96-2.16,2.15-2.16,1.19,0,2.16.96,2.16,2.15Z"/>
    <polyline class="cls-2" points="677.47 599.55 677.47 531.14 657.16 510.84 636.35 498.33 606.99 498.33 596.54 490.53 584.84 481.72 576.29 475.08 546.54 474.95 531.03 486.72 524.4 492.46 449.46 492.33 396.41 449.13 396.2 448.97 396.03 441.43 386.42 441.44 386.42 305.98"/>
    <path d="M381.4,302.68c0,2.77,2.24,5.01,5.01,5.01s5.01-2.24,5.01-5.01-2.24-5.01-5.01-5.01-5.01,2.24-5.01,5.01ZM388.57,302.68c0,1.19-.97,2.16-2.16,2.16s-2.16-.97-2.16-2.16.97-2.16,2.16-2.16,2.16.97,2.16,2.16Z"/>
    <polyline class="cls-2" points="677.47 599.55 677.47 531.14 657.16 510.84 636.35 498.33 606.99 498.33 596.54 490.53 584.84 481.72 576.29 475.08 546.54 474.95 531.03 486.72 524.4 492.46 449.46 492.33 396.41 449.13 396.2 448.97 396.82 273.25 387.51 266.23 387.51 224.34"/>
    <path d="M382.49,221.03c0,2.77,2.24,5.01,5.01,5.01s5.01-2.24,5.01-5.01-2.24-5.01-5.01-5.01-5.01,2.24-5.01,5.01ZM389.66,221.03c0,1.19-.97,2.16-2.16,2.16s-2.16-.97-2.16-2.16.97-2.16,2.16-2.16,2.16.97,2.16,2.16Z"/>
    <polyline class="cls-2" points="677.47 599.55 677.47 531.14 657.16 510.84 636.35 498.33 606.99 498.33 596.54 490.53 584.84 481.72 576.29 475.08 546.54 474.95 531.03 486.72 524.4 492.46 449.46 492.33 396.41 449.13 396.2 448.97 396.86 262.27 419.23 246.31 419.23 215.8"/>
    <path d="M414.22,212.49c0,2.77,2.24,5.01,5.01,5.01s5.01-2.24,5.01-5.01-2.24-5.01-5.01-5.01-5.01,2.24-5.01,5.01ZM421.39,212.49c0,1.19-.97,2.16-2.16,2.16s-2.16-.97-2.16-2.16.97-2.16,2.16-2.16,2.16.97,2.16,2.16Z"/>
    <polyline class="cls-2" points="677.47 599.55 677.47 531.14 657.16 510.84 636.35 498.33 606.99 498.33 596.54 490.53 584.84 481.72 576.29 475.08 546.54 474.95 531.03 486.72 524.4 492.46 449.46 492.33 396.41 449.13 396.2 448.97 396.89 253.63 408.88 245.63 408.88 153.61"/>
    <path d="M403.87,150.3c0,2.77,2.24,5.01,5.01,5.01s5.01-2.24,5.01-5.01-2.24-5.01-5.01-5.01-5.01,2.24-5.01,5.01ZM411.03,150.3c0,1.19-.97,2.16-2.16,2.16s-2.16-.97-2.16-2.16.97-2.16,2.16-2.16,2.16.97,2.16,2.16Z"/>
    <polyline class="cls-2" points="677.47 599.55 677.47 531.14 657.16 510.84 636.35 498.33 606.99 498.33 596.54 490.53 584.84 481.72 576.29 475.08 546.54 474.95 531.03 486.72 524.4 492.46 449.46 492.33 396.41 449.13 396.2 448.97 396.89 253.63 408.88 245.63 408.88 211.99 384.03 173.32 384.03 113.58"/>
    <path d="M379.02,110.27c0,2.77,2.24,5.01,5.01,5.01s5.01-2.24,5.01-5.01-2.24-5.01-5.01-5.01-5.01,2.24-5.01,5.01ZM386.19,110.27c0,1.19-.97,2.16-2.16,2.16s-2.16-.97-2.16-2.16.97-2.16,2.16-2.16,2.16.97,2.16,2.16Z"/>
    <polyline class="cls-2" points="677.47 599.55 677.47 531.14 657.16 510.84 636.35 498.33 606.99 498.33 596.54 490.53 584.84 481.72 576.29 475.08 546.54 474.95 531.03 486.72 524.4 492.46 449.46 492.33 396.41 449.13 396.2 448.97 396.89 253.63 408.88 245.63 408.88 211.99 384.03 173.32 384.03 162.48 390.25 162.48 398.25 149.75 398.25 59.18"/>
    <path d="M393.23,55.87c0,2.77,2.24,5.01,5.01,5.01s5.01-2.24,5.01-5.01-2.24-5.01-5.01-5.01-5.01,2.24-5.01,5.01ZM400.4,55.87c0,1.19-.97,2.16-2.16,2.16s-2.16-.97-2.16-2.16.97-2.16,2.16-2.16,2.16.97,2.16,2.16Z"/>
    <polyline class="cls-2" points="677.47 599.55 677.47 531.14 657.16 510.84 636.35 498.33 606.99 498.33 596.54 490.53 584.84 481.72 576.29 475.08 546.54 474.95 531.03 486.72 524.4 492.46 449.46 492.33 395.73 449.54 395.52 449.38 395.52 441.43 373.18 441.43 359.78 431.29 350.2 431.29 361.17 421.63 350.2 410.57 350.2 395.42 363.01 386.74 363.01 326.86 320.29 297.04 320.5 201.12 332.29 192.87 332.29 70.06"/>
    <path d="M327.28,66.76c0,2.77,2.24,5.01,5.01,5.01s5.01-2.24,5.01-5.01-2.24-5.01-5.01-5.01-5.01,2.24-5.01,5.01ZM334.45,66.76c0,1.19-.97,2.16-2.16,2.16s-2.16-.97-2.16-2.16.97-2.16,2.16-2.16,2.16.97,2.16,2.16Z"/>
    <polyline class="cls-2" points="321.09 80.37 320.29 297.04 363.01 326.86 363.01 386.74 350.2 395.42 350.2 410.57 361.17 421.63 350.2 431.29 359.78 431.29 373.18 441.43 395.52 441.43 395.52 449.38 395.73 449.54 449.46 492.33 524.4 492.46 531.03 486.72 546.54 474.95 576.29 475.08 584.84 481.72 596.54 490.53 606.99 498.33 636.35 498.33 657.16 510.84 677.47 531.14 677.47 599.55"/>
    <path d="M326.12,77.08c-.01,2.77-2.26,5-5.03,4.99-2.77-.01-5-2.26-4.99-5.03.01-2.77,2.26-5,5.03-4.99,2.77.01,5,2.26,4.99,5.03ZM318.95,77.06c0,1.19.96,2.16,2.15,2.16,1.19,0,2.16-.96,2.16-2.15,0-1.19-.96-2.16-2.15-2.16-1.19,0-2.16.96-2.16,2.15Z"/>
    <polyline class="cls-2" points="677.47 599.55 677.47 531.14 657.16 510.84 636.35 498.33 606.99 498.33 596.54 490.53 584.84 481.72 576.29 475.08 546.54 474.95 531.03 486.72 524.4 492.46 449.46 492.33 395.73 449.54 395.52 449.38 395.52 441.43 373.18 441.43 359.78 431.29 350.2 431.29 361.17 421.63 350.2 410.57 350.2 395.42 363.01 386.74 363 294.14 353.48 287.59 353.48 127.6"/>
    <path d="M348.47,124.3c0,2.77,2.24,5.01,5.01,5.01s5.01-2.24,5.01-5.01-2.24-5.01-5.01-5.01-5.01,2.24-5.01,5.01ZM355.64,124.3c0,1.19-.97,2.16-2.16,2.16s-2.16-.97-2.16-2.16.97-2.16,2.16-2.16,2.16.97,2.16,2.16Z"/>
    <polyline class="cls-2" points="677.47 599.55 677.47 531.14 657.16 510.84 636.35 498.33 606.99 498.33 596.54 490.53 584.84 481.72 576.29 475.08 546.54 474.95 531.03 486.72 524.4 492.46 449.46 492.33 395.73 449.54 395.52 449.38 395.52 441.43 373.18 441.43 359.78 431.29 350.2 431.29 361.17 421.63 350.2 410.57 350.2 395.42 363.01 386.74 362.99 256.1"/>
    <path d="M357.98,252.79c0,2.77,2.25,5.01,5.01,5.01,2.77,0,5.01-2.25,5.01-5.01,0-2.77-2.25-5.01-5.01-5.01-2.77,0-5.01,2.25-5.01,5.01ZM365.15,252.79c0,1.19-.97,2.16-2.16,2.16-1.19,0-2.16-.96-2.16-2.16,0-1.19.97-2.16,2.16-2.16,1.19,0,2.16.97,2.16,2.16Z"/>
    <polyline class="cls-2" points="677.47 599.55 677.47 531.14 657.16 510.84 636.35 498.33 606.99 498.33 596.54 490.53 584.84 481.72 576.29 475.08 546.54 474.95 531.03 486.72 524.4 492.46 449.46 492.33 395.73 449.54 395.52 449.38 395.52 441.43 373.18 441.43 359.78 431.29 350.2 431.29 361.17 421.63 350.2 410.57 350.2 395.42 363.01 386.74 363.01 326.86 320.29 297.04 320.29 259.08 331.22 248.53 331.22 223.24"/>
    <path d="M326.2,219.93c0,2.77,2.24,5.01,5.01,5.01s5.01-2.24,5.01-5.01-2.24-5.01-5.01-5.01-5.01,2.24-5.01,5.01ZM333.37,219.93c0,1.19-.97,2.16-2.16,2.16s-2.16-.97-2.16-2.16.97-2.16,2.16-2.16,2.16.97,2.16,2.16Z"/>
    <polyline class="cls-2" points="308.8 135.87 308.8 151.33 320.29 166.06 320.29 297.04 363.01 326.86 363.01 386.74 350.2 395.42 350.2 410.57 361.17 421.63 350.2 431.29 359.78 431.29 373.18 441.43 395.52 441.43 395.52 449.38 395.73 449.54 449.46 492.33 524.4 492.46 531.03 486.72 546.54 474.95 576.29 475.08 584.84 481.72 596.54 490.53 606.99 498.33 636.35 498.33 657.16 510.84 677.47 531.14 677.47 599.55"/>
    <path d="M313.81,132.56c0,2.77-2.24,5.01-5.01,5.01s-5.01-2.24-5.01-5.01,2.24-5.01,5.01-5.01,5.01,2.24,5.01,5.01ZM306.64,132.56c0,1.19.97,2.16,2.16,2.16s2.16-.97,2.16-2.16-.97-2.16-2.16-2.16-2.16.97-2.16,2.16Z"/>
    <polyline class="cls-2" points="677.47 599.55 677.47 531.14 657.16 510.84 636.35 498.33 606.99 498.33 596.54 490.53 584.84 481.72 576.29 475.08 546.54 474.95 531.03 486.72 524.4 492.46 449.46 492.33 395.73 449.54 395.52 449.38 395.52 441.43 373.18 441.43 359.78 431.29 350.2 431.29 376.76 407.55 376.64 273.9"/>
    <path d="M371.62,270.59c0,2.77,2.25,5.01,5.02,5.01,2.77,0,5.01-2.25,5.01-5.02,0-2.77-2.25-5.01-5.02-5.01-2.77,0-5.01,2.25-5.01,5.02ZM378.79,270.59c0,1.19-.96,2.16-2.15,2.16-1.19,0-2.16-.96-2.16-2.15,0-1.19.96-2.16,2.15-2.16,1.19,0,2.16.96,2.16,2.15Z"/>
    <polyline class="cls-2" points="677.47 599.55 677.47 531.14 657.16 510.84 636.35 498.33 606.99 498.33 596.54 490.53 584.84 481.72 576.29 475.08 546.54 474.95 531.03 486.72 524.4 492.46 449.46 492.33 395.73 449.54 395.52 449.38 395.52 441.43 373.18 441.43 359.78 431.29 350.2 431.29 361.17 421.63 350.2 410.57 350.2 360.71"/>
    <path d="M345.19,357.41c0,2.77,2.24,5.01,5.01,5.01s5.01-2.24,5.01-5.01-2.24-5.01-5.01-5.01-5.01,2.24-5.01,5.01ZM352.36,357.41c0,1.19-.97,2.16-2.16,2.16s-2.16-.97-2.16-2.16.97-2.16,2.16-2.16,2.16.97,2.16,2.16Z"/>
    <polyline class="cls-2" points="677.47 599.55 677.47 531.14 657.16 510.84 636.35 498.33 606.99 498.33 596.54 490.53 584.84 481.72 576.29 475.08 546.54 474.95 531.03 486.72 524.4 492.46 449.46 492.33 395.73 449.54 395.52 449.38 395.52 441.43 373.18 441.43 359.78 431.29 350.2 431.29 341.48 422.48 315.67 422.48 305.25 415.13 330.32 397.72 330.32 356.13"/>
    <path d="M325.3,352.83c0,2.77,2.24,5.01,5.01,5.01s5.01-2.24,5.01-5.01-2.24-5.01-5.01-5.01-5.01,2.24-5.01,5.01ZM332.47,352.83c0,1.19-.97,2.16-2.16,2.16s-2.16-.97-2.16-2.16.97-2.16,2.16-2.16,2.16.97,2.16,2.16Z"/>
    <polyline class="cls-2" points="677.47 599.55 677.47 531.14 657.16 510.84 636.35 498.33 606.99 498.33 596.54 490.53 584.84 481.72 576.29 475.08 546.54 474.95 524.97 492.54 503.08 492.43 503.08 424.57"/>
    <path d="M498.07,421.27c0,2.77,2.24,5.01,5.01,5.01s5.01-2.24,5.01-5.01-2.24-5.01-5.01-5.01-5.01,2.24-5.01,5.01ZM505.24,421.27c0,1.19-.97,2.16-2.16,2.16s-2.16-.97-2.16-2.16.97-2.16,2.16-2.16,2.16.97,2.16,2.16Z"/>
    <polyline class="cls-2" points="677.47 599.55 677.47 531.14 657.16 510.84 636.35 498.33 606.99 498.33 596.54 490.53 584.84 481.72 576.29 475.08 546.54 474.95 524.97 492.54 503.08 492.43 503.08 456.44 518.25 443.42 518.25 376.87 513.87 376.87 467.85 342.14 467.85 306.17"/>
    <path d="M462.84,302.86c0,2.77,2.24,5.01,5.01,5.01s5.01-2.24,5.01-5.01-2.24-5.01-5.01-5.01-5.01,2.24-5.01,5.01ZM470.01,302.86c0,1.19-.97,2.16-2.16,2.16s-2.16-.97-2.16-2.16.97-2.16,2.16-2.16,2.16.97,2.16,2.16Z"/>
    <polyline class="cls-2" points="677.47 599.55 677.47 531.14 657.16 510.84 636.35 498.33 606.99 498.33 596.54 490.53 584.84 481.72 576.29 475.08 546.54 474.95 524.97 492.54 503.08 492.43 503.08 464.38 485.78 450.31 485.78 427.33 471.46 417.21 471.46 409.61"/>
    <path d="M466.44,406.3c0,2.77,2.24,5.01,5.01,5.01s5.01-2.24,5.01-5.01-2.24-5.01-5.01-5.01-5.01,2.24-5.01,5.01ZM473.61,406.3c0,1.19-.97,2.16-2.16,2.16s-2.16-.97-2.16-2.16.97-2.16,2.16-2.16,2.16.97,2.16,2.16Z"/>
    <polyline class="cls-2" points="677.47 599.55 677.47 531.14 657.16 510.84 636.35 498.33 606.99 498.33 596.54 490.53 584.84 481.72 576.29 475.08 546.54 474.95 524.97 492.54 503.08 492.43 503.08 464.38 485.78 450.31 485.78 389.71"/>
    <path d="M480.77,386.41c0,2.77,2.24,5.01,5.01,5.01s5.01-2.24,5.01-5.01-2.24-5.01-5.01-5.01-5.01,2.24-5.01,5.01ZM487.93,386.41c0,1.19-.97,2.16-2.16,2.16s-2.16-.97-2.16-2.16.97-2.16,2.16-2.16,2.16.97,2.16,2.16Z"/>
    <polyline class="cls-2" points="677.47 599.55 677.47 531.14 657.16 510.84 636.35 498.33 606.99 498.33 596.54 490.53 584.84 481.72 576.29 475.08 546.54 474.95 543.38 477.36 529.91 467.84 529.91 457.33 540.03 450.19 540.03 395.92"/>
    <path d="M535.02,392.62c0,2.77,2.24,5.01,5.01,5.01s5.01-2.24,5.01-5.01-2.24-5.01-5.01-5.01-5.01,2.24-5.01,5.01ZM542.19,392.62c0,1.19-.97,2.16-2.16,2.16s-2.16-.97-2.16-2.16.97-2.16,2.16-2.16,2.16.97,2.16,2.16Z"/>
    <polyline class="cls-2" points="677.47 599.55 677.47 531.14 657.16 510.84 636.35 498.33 606.99 498.33 596.54 490.53 584.84 481.72 576.29 475.08 546.54 474.95 543.38 477.36 529.91 467.84 529.91 402.12"/>
    <path d="M524.89,398.81c0,2.77,2.24,5.01,5.01,5.01s5.01-2.24,5.01-5.01-2.24-5.01-5.01-5.01-5.01,2.24-5.01,5.01ZM532.06,398.81c0,1.19-.97,2.16-2.16,2.16s-2.16-.97-2.16-2.16.97-2.16,2.16-2.16,2.16.97,2.16,2.16Z"/>
    <polyline class="cls-2" points="677.47 599.55 677.47 531.14 657.16 510.84 636.35 498.33 606.99 498.33 596.54 490.53 584.84 481.72 576.29 475.08 546.54 474.95 531.03 486.72 524.4 492.46 449.46 492.33 395.73 449.54 395.52 449.38 395.52 441.43 379.44 441.43 364.2 454.31 304.03 454.19 258.88 421.7 233.82 421.97 208.58 404.2 208.58 388.27 221.21 379.59 221.21 344.06 261.99 332.33 262.06 260.48 299.01 240.84 299.01 187.95"/>
    <path d="M294,184.64c0,2.77,2.24,5.01,5.01,5.01s5.01-2.24,5.01-5.01-2.24-5.01-5.01-5.01-5.01,2.24-5.01,5.01ZM301.17,184.64c0,1.19-.97,2.16-2.16,2.16s-2.16-.97-2.16-2.16.97-2.16,2.16-2.16,2.16.97,2.16,2.16Z"/>
    <polyline class="cls-2" points="677.47 599.55 677.47 531.14 657.16 510.84 636.35 498.33 606.99 498.33 594.74 505.44 574.69 504.84 559.82 494.38 540.99 494.38 531.03 486.72 524.4 492.46 449.46 492.33 395.73 449.54 395.52 449.38 395.52 441.43 379.44 441.43 364.2 454.31 304.03 454.19 258.88 421.7 233.82 421.97 208.58 404.2 208.58 388.27 221.21 379.59 221.21 344.06 261.99 332.33 262.07 250.53 289.69 236.74 289.69 138.48"/>
    <path d="M284.68,135.17c0,2.77,2.24,5.01,5.01,5.01s5.01-2.24,5.01-5.01-2.24-5.01-5.01-5.01-5.01,2.24-5.01,5.01ZM291.85,135.17c0,1.19-.97,2.16-2.16,2.16s-2.16-.97-2.16-2.16.97-2.16,2.16-2.16,2.16.97,2.16,2.16Z"/>
    <polyline class="cls-2" points="677.47 599.55 677.47 531.14 657.16 510.84 636.35 498.33 606.99 498.33 594.74 505.44 574.69 504.84 559.82 494.38 540.99 494.38 531.03 486.72 524.4 492.46 449.46 492.33 395.73 449.54 395.52 449.38 395.52 441.43 379.44 441.43 364.2 454.31 304.03 454.19 258.88 421.7 233.82 421.97 208.58 404.2 208.58 388.27 221.21 379.59 221.21 344.06 261.99 332.33 262.2 121.02"/>
    <path d="M257.19,117.7c0,2.77,2.24,5.02,5.01,5.02,2.77,0,5.02-2.24,5.02-5.01,0-2.77-2.24-5.02-5.01-5.02-2.77,0-5.02,2.24-5.02,5.01ZM264.36,117.71c0,1.19-.97,2.16-2.16,2.15-1.19,0-2.16-.97-2.15-2.16,0-1.19.97-2.16,2.16-2.15,1.19,0,2.16.97,2.15,2.16Z"/>
    <polyline class="cls-2" points="677.47 599.55 677.47 531.14 657.16 510.84 636.35 498.33 606.99 498.33 594.74 505.44 574.69 504.84 559.82 494.38 540.99 494.38 531.03 486.72 524.4 492.46 449.46 492.33 395.73 449.54 395.52 449.38 395.52 441.43 379.44 441.43 364.2 454.31 304.03 454.19 258.88 421.7 233.82 421.97 208.58 404.2 208.58 388.27 221.21 379.59 221.21 344.06 236.99 339.52 237.23 362.06 250.29 371.08 250.29 378.58"/>
    <path d="M255.31,381.88c0-2.77-2.24-5.01-5.01-5.01s-5.01,2.24-5.01,5.01,2.24,5.01,5.01,5.01,5.01-2.24,5.01-5.01ZM248.14,381.88c0-1.19.97-2.16,2.16-2.16s2.16.97,2.16,2.16-.97,2.16-2.16,2.16-2.16-.97-2.16-2.16Z"/>
    <polyline class="cls-2" points="677.47 599.55 677.47 531.14 657.16 510.84 636.35 498.33 606.99 498.33 594.74 505.44 574.69 504.84 559.82 494.38 540.99 494.38 531.03 486.72 524.4 492.46 449.46 492.33 395.73 449.54 395.52 449.38 395.52 441.43 379.44 441.43 364.2 454.31 304.03 454.19 258.88 421.7 233.82 421.97 197.97 396.73 197.97 350.74 261.99 332.33 261.99 226.68 243.1 226.68 243.1 144.67"/>
    <path d="M238.09,141.36c0,2.77,2.24,5.01,5.01,5.01s5.01-2.24,5.01-5.01-2.24-5.01-5.01-5.01-5.01,2.24-5.01,5.01ZM245.25,141.36c0,1.19-.97,2.16-2.16,2.16s-2.16-.97-2.16-2.16.97-2.16,2.16-2.16,2.16.97,2.16,2.16Z"/>
    <polyline class="cls-2" points="677.47 599.55 677.47 531.14 657.16 510.84 636.35 498.33 606.99 498.33 594.74 505.44 574.69 504.84 559.82 494.38 540.99 494.38 531.03 486.72 524.4 492.46 449.46 492.33 395.73 449.54 395.52 449.38 395.52 441.43 379.44 441.43 364.2 454.31 304.03 454.19 258.88 421.7 233.82 421.97 197.97 396.73 197.97 350.74 183.17 340.32 231.61 325.89 231.61 163.16"/>
    <path d="M226.6,159.86c0,2.77,2.24,5.01,5.01,5.01s5.01-2.24,5.01-5.01-2.24-5.01-5.01-5.01-5.01,2.24-5.01,5.01ZM233.76,159.86c0,1.19-.97,2.16-2.16,2.16s-2.16-.97-2.16-2.16.97-2.16,2.16-2.16,2.16.97,2.16,2.16Z"/>
    <polyline class="cls-2" points="677.47 599.55 677.47 531.14 657.16 510.84 636.35 498.33 606.99 498.33 594.74 505.44 574.69 504.84 559.82 494.38 540.99 494.38 531.03 486.72 524.4 492.46 449.46 492.33 395.73 449.54 395.52 449.38 395.52 441.43 379.44 441.43 364.2 454.31 304.03 454.19 258.88 421.7 233.82 421.97 197.97 396.73 197.97 350.74 179.92 338.03 179.92 319.33 210.84 296.87 210.84 276.25"/>
    <path d="M205.83,272.95c0,2.77,2.24,5.01,5.01,5.01s5.01-2.24,5.01-5.01-2.24-5.01-5.01-5.01-5.01,2.24-5.01,5.01ZM213,272.95c0,1.19-.97,2.16-2.16,2.16s-2.16-.97-2.16-2.16.97-2.16,2.16-2.16,2.16.97,2.16,2.16Z"/>
    <polyline class="cls-2" points="677.47 599.55 677.47 531.14 657.16 510.84 636.35 498.33 606.99 498.33 594.74 505.44 574.69 504.84 559.82 494.38 540.99 494.38 531.03 486.72 524.4 492.46 449.46 492.33 395.73 449.54 395.52 449.38 395.52 441.43 379.44 441.43 364.2 454.31 304.03 454.19 258.88 421.7 233.82 421.97 197.97 396.73 197.97 350.74 162.81 325.97 162.81 289.1"/>
    <path d="M157.79,285.79c0,2.77,2.24,5.01,5.01,5.01s5.01-2.24,5.01-5.01-2.24-5.01-5.01-5.01-5.01,2.24-5.01,5.01ZM164.96,285.79c0,1.19-.97,2.16-2.16,2.16s-2.16-.97-2.16-2.16.97-2.16,2.16-2.16,2.16.97,2.16,2.16Z"/>
    <polyline class="cls-2" points="677.47 599.55 677.47 531.14 657.16 510.84 636.35 498.33 606.99 498.33 594.74 505.44 574.69 504.84 559.82 494.38 540.99 494.38 531.03 486.72 524.4 492.46 449.46 492.33 395.73 449.54 395.52 449.38 395.52 441.43 379.44 441.43 364.2 454.31 304.03 454.19 258.88 421.7 233.82 421.97 197.97 396.73 197.97 363.25 142.16 325.89 142.16 307.76"/>
    <path d="M137.15,304.45c0,2.77,2.24,5.01,5.01,5.01s5.01-2.24,5.01-5.01-2.24-5.01-5.01-5.01-5.01,2.24-5.01,5.01ZM144.32,304.45c0,1.19-.97,2.16-2.16,2.16s-2.16-.97-2.16-2.16.97-2.16,2.16-2.16,2.16.97,2.16,2.16Z"/>
    <polyline class="cls-2" points="677.47 599.55 677.47 531.14 657.16 510.84 636.35 498.33 606.99 498.33 594.74 505.44 574.69 504.84 559.82 494.38 540.99 494.38 531.03 486.72 524.4 492.46 449.46 492.33 395.73 449.54 395.52 449.38 395.52 441.43 379.44 441.43 364.2 454.31 304.03 454.19 258.88 421.7 233.82 421.97 197.97 396.73 197.97 359.8 139.65 359.8 88.19 323.59 88.19 285.8 106.81 272.7 106.81 254.99 115.69 254.99 115.69 265.97 162.81 265.63 213.23 230.14 213.23 103.1"/>
    <path d="M208.21,99.79c0,2.77,2.24,5.01,5.01,5.01s5.01-2.24,5.01-5.01-2.24-5.01-5.01-5.01-5.01,2.24-5.01,5.01ZM215.38,99.79c0,1.19-.97,2.16-2.16,2.16s-2.16-.97-2.16-2.16.97-2.16,2.16-2.16,2.16.97,2.16,2.16Z"/>
    <polyline class="cls-2" points="677.47 599.55 677.47 531.14 657.16 510.84 636.35 498.33 606.99 498.33 594.74 505.44 574.69 504.84 559.82 494.38 540.99 494.38 531.03 486.72 524.4 492.46 449.46 492.33 395.73 449.54 395.52 449.38 395.52 441.43 379.44 441.43 364.2 454.31 304.03 454.19 258.88 421.7 233.82 421.97 197.97 396.73 197.97 359.8 139.65 359.8 88.19 323.59 88.19 286.31 106.81 273.21 106.81 254.99 115.69 254.99 115.69 265.97 155.95 265.97 155.95 254.99 191.29 229.97 191.29 183.67"/>
    <path d="M186.28,180.36c0,2.77,2.24,5.01,5.01,5.01s5.01-2.24,5.01-5.01-2.24-5.01-5.01-5.01-5.01,2.24-5.01,5.01ZM193.45,180.36c0,1.19-.97,2.16-2.16,2.16s-2.16-.97-2.16-2.16.97-2.16,2.16-2.16,2.16.97,2.16,2.16Z"/>
    <polyline class="cls-2" points="677.47 599.55 677.47 531.14 657.16 510.84 636.35 498.33 606.99 498.33 594.74 505.44 574.69 504.84 559.82 494.38 540.99 494.38 531.03 486.72 524.4 492.46 449.46 492.33 395.73 449.54 395.52 449.38 395.52 441.43 379.44 441.43 364.2 454.31 304.03 454.19 258.88 421.7 233.82 421.97 197.97 396.73 197.97 359.8 139.65 359.8 88.19 323.59 88.19 286.31 106.81 273.21 106.81 254.99 124.57 254.99 124.57 243.12 166.41 201.28 166.41 109.34"/>
    <path d="M161.39,106.03c0,2.77,2.24,5.01,5.01,5.01s5.01-2.24,5.01-5.01-2.24-5.01-5.01-5.01-5.01,2.24-5.01,5.01ZM168.56,106.03c0,1.19-.97,2.16-2.16,2.16s-2.16-.97-2.16-2.16.97-2.16,2.16-2.16,2.16.97,2.16,2.16Z"/>
    <polyline class="cls-2" points="677.47 599.55 677.47 531.14 657.16 510.84 636.35 498.33 606.99 498.33 594.74 505.44 574.69 504.84 559.82 494.38 540.99 494.38 531.03 486.72 524.4 492.46 449.46 492.33 395.73 449.54 395.52 449.38 395.52 441.43 379.44 441.43 364.2 454.31 304.03 454.19 258.88 421.7 233.82 421.97 197.97 396.73 197.97 359.8 139.65 359.8 88.19 323.59 88.19 286.31 106.81 273.21 106.81 254.99 124.57 254.99 124.57 243.12 166.41 201.28 166.41 192.43 150.26 176.29 150.26 143.01"/>
    <path d="M145.25,139.71c0,2.77,2.24,5.01,5.01,5.01s5.01-2.24,5.01-5.01-2.24-5.01-5.01-5.01-5.01,2.24-5.01,5.01ZM152.42,139.71c0,1.19-.97,2.16-2.16,2.16s-2.16-.97-2.16-2.16.97-2.16,2.16-2.16,2.16.97,2.16,2.16Z"/>
    <polyline class="cls-2" points="677.47 599.55 677.47 531.14 657.16 510.84 636.35 498.33 606.99 498.33 594.74 505.44 574.69 504.84 559.82 494.38 540.99 494.38 531.03 486.72 524.4 492.46 449.46 492.33 395.73 449.54 395.52 449.38 395.52 441.43 379.44 441.43 364.2 454.31 304.03 454.19 258.88 421.7 233.82 421.97 197.97 396.73 197.97 359.8 139.65 359.8 97.82 330.37 107.76 320.44 107.76 295.91"/>
    <path d="M102.75,292.6c0,2.77,2.24,5.01,5.01,5.01s5.01-2.24,5.01-5.01-2.24-5.01-5.01-5.01-5.01,2.24-5.01,5.01ZM109.92,292.6c0,1.19-.97,2.16-2.16,2.16s-2.16-.97-2.16-2.16.97-2.16,2.16-2.16,2.16.97,2.16,2.16Z"/>
    <polyline class="cls-2" points="702.63 599.55 702.63 581.29 694.08 568.02 694.08 489.55 688.98 481.04 688.98 428.09"/>
    <path d="M683.96,424.78c0,2.77,2.24,5.01,5.01,5.01s5.01-2.24,5.01-5.01-2.24-5.01-5.01-5.01-5.01,2.24-5.01,5.01ZM691.13,424.78c0,1.19-.97,2.16-2.16,2.16s-2.16-.97-2.16-2.16.97-2.16,2.16-2.16,2.16.97,2.16,2.16Z"/>
    <polyline class="cls-2" points="677.47 599.55 677.47 531.14 657.16 510.84 636.35 498.33 606.99 498.33 594.74 505.44 574.69 504.84 559.82 494.38 540.99 494.38 531.03 486.72 524.4 492.46 449.46 492.33 395.73 449.54 395.52 449.38 395.52 441.43 379.44 441.43 364.2 454.31 304.03 454.19 258.88 421.7 233.82 421.97 197.97 396.73 197.97 359.8 139.65 359.8 88.19 323.59 88.19 286.31 106.81 273.21 106.81 254.99 124.57 254.99 124.57 169.87"/>
    <path d="M119.55,166.57c0,2.77,2.24,5.01,5.01,5.01s5.01-2.24,5.01-5.01-2.24-5.01-5.01-5.01-5.01,2.24-5.01,5.01ZM126.72,166.57c0,1.19-.97,2.16-2.16,2.16s-2.16-.97-2.16-2.16.97-2.16,2.16-2.16,2.16.97,2.16,2.16Z"/>
    <polyline class="cls-2" points="677.47 599.55 677.47 531.14 657.16 510.84 636.35 498.33 606.99 498.33 594.74 505.44 574.69 504.84 559.82 494.38 540.99 494.38 531.03 486.72 524.4 492.46 449.46 492.33 395.73 449.54 395.52 449.38 395.52 441.43 379.44 441.43 364.2 454.31 304.03 454.19 258.88 421.7 233.82 421.97 197.97 396.73 197.97 359.8 139.65 359.8 88.19 323.59 88.19 286.31 106.81 273.21 106.81 198"/>
    <path d="M101.8,194.69c0,2.77,2.24,5.01,5.01,5.01s5.01-2.24,5.01-5.01-2.24-5.01-5.01-5.01-5.01,2.24-5.01,5.01ZM108.96,194.69c0,1.19-.97,2.16-2.16,2.16s-2.16-.97-2.16-2.16.97-2.16,2.16-2.16,2.16.97,2.16,2.16Z"/>
    <polyline class="cls-2" points="677.47 599.55 677.47 531.14 657.16 510.84 636.35 498.33 606.99 498.33 594.74 505.44 574.69 504.84 559.82 494.38 540.99 494.38 531.03 486.72 524.4 492.46 449.46 492.33 395.73 449.54 395.52 449.38 395.52 441.43 379.44 441.43 364.2 454.31 304.03 454.19 258.88 421.7 233.82 421.97 197.97 396.73 197.97 359.8 139.65 359.8 70.52 311.16 70.52 222.58"/>
    <path d="M65.51,219.28c0,2.77,2.24,5.01,5.01,5.01s5.01-2.24,5.01-5.01-2.24-5.01-5.01-5.01-5.01,2.24-5.01,5.01ZM72.68,219.28c0,1.19-.97,2.16-2.16,2.16s-2.16-.97-2.16-2.16.97-2.16,2.16-2.16,2.16.97,2.16,2.16Z"/>
    <polyline class="cls-2" points="677.47 599.55 677.47 531.14 657.16 510.84 636.35 498.33 606.99 498.33 594.74 505.44 574.69 504.84 559.82 494.38 540.99 494.38 531.03 486.72 524.4 492.46 449.46 492.33 395.73 449.54 395.52 449.38 395.52 441.43 379.44 441.43 364.2 454.31 304.03 454.19 258.88 421.7 233.82 421.97 197.97 396.73 197.97 359.8 139.65 359.8 115.92 343.1 88.97 342.82 80.03 348.95 50.58 329.74 50.58 250.8"/>
    <path d="M45.56,247.49c0,2.77,2.24,5.01,5.01,5.01s5.01-2.24,5.01-5.01-2.24-5.01-5.01-5.01-5.01,2.24-5.01,5.01ZM52.73,247.49c0,1.19-.97,2.16-2.16,2.16s-2.16-.97-2.16-2.16.97-2.16,2.16-2.16,2.16.97,2.16,2.16Z"/>
    <polyline class="cls-2" points="677.47 599.55 677.47 531.14 657.16 510.84 636.35 498.33 606.99 498.33 594.74 505.44 574.69 504.84 559.82 494.38 540.99 494.38 531.03 486.72 524.4 492.46 449.46 492.33 395.73 449.54 395.52 449.38 395.52 441.43 379.44 441.43 364.2 454.31 304.03 454.19 258.88 421.7 233.82 421.97 197.97 396.73 197.97 359.8 139.65 359.8 115.92 343.1 88.97 342.82 80.03 348.95 58.25 348.95 39.23 337.84 39.69 237.82"/>
    <path d="M34.69,234.49c-.01,2.77,2.22,5.02,4.99,5.04,2.77.01,5.02-2.22,5.04-4.99.01-2.77-2.22-5.02-4.99-5.04-2.77-.01-5.02,2.22-5.04,4.99ZM41.86,234.52c0,1.19-.98,2.15-2.17,2.15-1.19,0-2.15-.98-2.15-2.17,0-1.19.98-2.15,2.17-2.15,1.19,0,2.15.98,2.15,2.17Z"/>
    <polyline class="cls-2" points="677.47 599.55 677.47 531.14 657.16 510.84 636.35 498.33 606.99 498.33 594.74 505.44 574.69 504.84 559.82 494.38 540.99 494.38 531.03 486.72 524.4 492.46 449.46 492.33 415.37 464.38 310.82 464.38 303.42 470.16 287.47 470.16"/>
    <path d="M284.17,475.17c2.77,0,5.01-2.24,5.01-5.01s-2.24-5.01-5.01-5.01-5.01,2.24-5.01,5.01,2.24,5.01,5.01,5.01ZM284.17,468c1.19,0,2.16.97,2.16,2.16s-.97,2.16-2.16,2.16-2.16-.97-2.16-2.16.97-2.16,2.16-2.16Z"/>
    <polyline class="cls-2" points="677.47 599.55 677.47 531.4 657.5 511.1 636.69 498.59 607.33 498.59 595.08 505.7 575.03 505.1 560.16 494.63 541.33 494.63 531.37 486.97 524.74 492.72 449.8 492.59 395.52 449.21 395.52 441.43 380.72 441.68 364.54 454.57 304.8 454.57 258.43 422.23 234.16 422.23 175.87 381.18"/>
    <path d="M170.28,383.37c2.26,1.59,5.39,1.05,6.99-1.21s1.05-5.39-1.21-6.99c-2.26-1.59-5.39-1.05-6.99,1.21s-1.05,5.39,1.21,6.99ZM174.41,377.51c.97.69,1.21,2.03.52,3-.69.97-2.03,1.21-3,.52-.97-.69-1.21-2.03-.52-3,.69-.97,2.03-1.21,3-.52Z"/>
    <polyline class="cls-2" points="677.47 599.55 677.47 531.14 657.16 510.84 636.35 498.33 606.99 498.33 594.74 505.44 574.69 504.84 559.82 494.38 540.99 494.38 531.03 486.72 524.4 492.46 449.46 492.33 395.52 449.21 395.52 441.43 380.37 441.43 364.2 454.31 304.03 454.19 240.93 408.79"/>
    <path d="M235.32,410.93c2.25,1.62,5.38,1.11,7-1.14,1.62-2.25,1.11-5.38-1.14-7-2.25-1.62-5.38-1.11-7,1.14-1.62,2.25-1.11,5.38,1.14,7ZM239.51,405.11c.97.7,1.19,2.04.49,3.01-.7.97-2.04,1.19-3.01.49-.97-.7-1.19-2.04-.49-3.01.7-.97,2.04-1.19,3.01-.49Z"/>
    <polyline class="cls-2" points="677.47 599.55 677.47 531.14 657.16 510.84 636.35 498.33 606.99 498.33 594.74 505.44 574.69 504.84 559.82 494.38 540.99 494.38 531.03 486.72 524.4 492.46 449.46 492.33 395.52 449.21 395.52 441.43 380.37 441.43 364.2 454.31 304.46 454.31 258.09 421.97 233.82 421.97 197.97 396.73 197.97 359.8 139.65 359.8 115.52 342.82 88.97 342.82 80.03 348.95 25.14 348.95 11.99 338.79"/>
    <path d="M6.31,340.74c2.19,1.69,5.34,1.29,7.03-.9s1.29-5.34-.9-7.03c-2.19-1.69-5.34-1.29-7.03.9-1.69,2.19-1.29,5.34.9,7.03ZM10.69,335.07c.94.73,1.12,2.08.39,3.02-.73.94-2.08,1.12-3.02.39s-1.12-2.08-.39-3.02c.73-.94,2.08-1.12,3.02-.39Z"/>
    <polyline class="cls-2" points="677.47 599.55 677.47 531.14 657.16 510.84 636.35 498.33 606.99 498.33 594.74 505.44 574.69 504.84 559.82 494.38 540.99 494.38 531.03 486.72 524.4 492.46 449.46 492.33 395.4 449.24 395.4 441.46 380.37 441.43 364.2 454.31 237.96 454.31 224 442.28"/>
    <path d="M218.22,443.93c2.1,1.81,5.26,1.57,7.07-.53,1.81-2.1,1.57-5.26-.53-7.07-2.1-1.81-5.26-1.57-7.07.53-1.81,2.1-1.57,5.26.53,7.07ZM222.9,438.49c.9.78,1,2.14.23,3.04-.78.9-2.14,1-3.04.23s-1-2.14-.23-3.04c.78-.9,2.14-1,3.04-.23Z"/>
    <polyline class="cls-2" points="677.47 599.55 677.47 531.14 657.16 510.84 636.35 498.33 606.99 498.33 594.74 505.44 557.4 505.44"/>
    <path d="M554.09,510.46c2.77,0,5.01-2.24,5.01-5.01s-2.24-5.01-5.01-5.01-5.01,2.24-5.01,5.01,2.24,5.01,5.01,5.01ZM554.09,503.29c1.19,0,2.16.97,2.16,2.16s-.97,2.16-2.16,2.16-2.16-.97-2.16-2.16.97-2.16,2.16-2.16Z"/>
    <polyline class="cls-2" points="677.47 599.55 677.47 531.14 657.16 510.84 636.35 498.33 606.99 498.33 594.74 505.44 574.69 504.84 559.82 494.38 540.99 494.38 531.03 486.72 524.4 492.46 449.46 492.33 396.03 449.21 396.03 441.43 373.18 441.43 359.78 431.29 294.54 431.29 262.03 407.15"/>
    <path d="M256.39,409.2c2.22,1.65,5.36,1.19,7.01-1.04,1.65-2.22,1.19-5.36-1.04-7.01-2.22-1.65-5.36-1.19-7.01,1.04-1.65,2.22-1.19,5.36,1.04,7.01ZM260.66,403.44c.96.71,1.16,2.06.45,3.02-.71.96-2.06,1.16-3.02.45-.96-.71-1.16-2.06-.45-3.02.71-.96,2.06-1.16,3.02-.45Z"/>
    <polyline class="cls-2" points="677.47 599.55 677.47 531.14 657.16 510.84 636.35 498.33 606.99 498.33 594.74 505.44 574.69 504.84 559.82 494.38 540.99 494.38 531.03 486.72 524.4 492.46 449.46 492.33 396.03 449.21 395.79 441.43 373.18 441.43 359.78 431.29 350.78 431.29 341.48 422.48 315.67 422.48 280.76 397.84 281.03 288.69"/>
    <path d="M276.02,285.37c0,2.77,2.23,5.02,5,5.03s5.02-2.23,5.03-5c0-2.77-2.23-5.02-5-5.03-2.77,0-5.02,2.23-5.03,5ZM283.19,285.39c0,1.19-.97,2.15-2.16,2.15-1.19,0-2.15-.97-2.15-2.16,0-1.19.97-2.15,2.16-2.15,1.19,0,2.15.97,2.15,2.16Z"/>
    <polyline class="cls-2" points="677.47 599.55 677.47 531.74 657.1 511.44 636.29 498.93 606.93 498.93 594.67 506.04 574.63 505.44 559.75 494.97 540.93 494.97 530.97 487.31 524.33 493.06 449.4 492.93 395.52 449.38 395.52 441.6 373.12 442.02 359.78 431.29 350.42 431.44 341.41 423.08 315.61 423.08 280.69 398.44 280.74 378.69 300.65 364.91 300.7 280.77"/>
    <path d="M295.69,277.46c0,2.77,2.24,5.01,5.01,5.02,2.77,0,5.01-2.24,5.02-5.01,0-2.77-2.24-5.01-5.01-5.02s-5.01,2.24-5.02,5.01ZM302.86,277.46c0,1.19-.97,2.16-2.16,2.15-1.19,0-2.16-.97-2.15-2.16,0-1.19.97-2.16,2.16-2.15,1.19,0,2.16.97,2.15,2.16Z"/>
    <polyline class="cls-2" points="677.47 599.55 677.47 531.14 657.16 510.84 636.35 498.33 606.99 498.33 594.74 505.44 574.63 505.44 559.82 494.38 540.99 494.38 531.03 486.72 524.4 492.46 449.46 492.33 395.52 449.38 395.52 441.43 373.18 441.43 359.78 431.29 350.78 431.29 341.48 422.48 315.67 422.48 289.38 403.93 289.38 396.63 312.67 380.16 312.61 342.41"/>
    <path d="M307.59,339.11c0,2.77,2.25,5.01,5.02,5,2.77,0,5.01-2.25,5-5.02,0-2.77-2.25-5.01-5.02-5-2.77,0-5.01,2.25-5,5.02ZM314.76,339.1c0,1.19-.96,2.16-2.15,2.16-1.19,0-2.16-.96-2.16-2.15,0-1.19.96-2.16,2.15-2.16,1.19,0,2.16.96,2.16,2.15Z"/>
  </g>
</svg>
